<mxfile host="app.diagrams.net" modified="2024-04-01T03:34:30.479Z" agent="Mozilla/5.0 (Windows NT 10.0; Win64; x64) AppleWebKit/537.36 (KHTML, like Gecko) Chrome/123.0.0.0 Safari/537.36 Edg/123.0.0.0" version="24.1.0" etag="e0EIN2XtnpRvSefv11vK" type="github">
  <diagram name="第 1 页" id="NR7CBVs6Yuf4mTjP30AH">
    <mxGraphModel>
      <root>
        <mxCell id="0" />
        <mxCell id="1" parent="0" />
      </root>
    </mxGraphModel>
  </diagram>
</mxfile>
